<svg xmlns="http://www.w3.org/2000/svg" viewBox="0 0 512 512"><path d="M256 0C114.8 0 0 114.8 0 256s114.8 256 256 256 256-114.8 256-256S397.2 0 256 0zM256 480C132.5 480 32 379.5 32 256S132.5 32 256 32s224 100.5 224 224S379.5 480 256 480z"/><path d="M311 339.7C299.1 347.9 286 352 272 352c-29.5 0-55-19.5-68.9-48H256c8.8 0 16-7.2 16-16 0-8.8-7.2-16-16-16h-62.7c-0.7-5.2-1.3-10.5-1.3-16s0.6-10.8 1.3-16H272c8.8 0 16-7.2 16-16 0-8.8-7.2-16-16-16h-68.9c13.9-28.5 39.4-48 68.9-48 14 0 27.1 4.1 39 12.3 7.3 5 17.3 3.1 22.2-4.2 5-7.3 3.1-17.2-4.2-22.2C311.9 134.2 292.2 128 272 128c-46.9 0-87 33.2-103.7 80H144c-8.8 0-16 7.2-16 16 0 8.8 7.2 16 16 16h17.4c-0.6 5.3-1.4 10.5-1.4 16s0.8 10.7 1.4 16H144c-8.8 0-16 7.2-16 16 0 8.8 7.2 16 16 16h24.3c16.7 46.8 56.8 80 103.7 80 20.2 0 39.9-6.2 57-17.8 7.3-5 9.2-14.9 4.2-22.2C328.3 336.6 318.3 334.8 311 339.7z"/></svg>